<svg xmlns="http://www.w3.org/2000/svg" version="1.1" xmlns:xlink="http://www.w3.org/1999/xlink" xmlns:svgjs="http://svgjs.com/svgjs" width="1440" height="250" preserveAspectRatio="none" viewBox="0 0 1440 250"><g mask="url(&quot;#SvgjsMask2373&quot;)" fill="none"><rect width="1440" height="250" x="0" y="0" fill="url(#SvgjsLinearGradient2374)"></rect><path d="M27 250L277 0L347.5 0L97.5 250z" fill="url(#SvgjsLinearGradient2375)"></path><path d="M242.60000000000002 250L492.6 0L819.6 0L569.6 250z" fill="url(#SvgjsLinearGradient2375)"></path><path d="M509.20000000000005 250L759.2 0L1066.7 0L816.7 250z" fill="url(#SvgjsLinearGradient2375)"></path><path d="M740.8000000000001 250L990.8000000000001 0L1253.3000000000002 0L1003.3000000000001 250z" fill="url(#SvgjsLinearGradient2375)"></path><path d="M1395 250L1145 0L1034 0L1284 250z" fill="url(#SvgjsLinearGradient2376)"></path><path d="M1168.4 250L918.4000000000001 0L615.4000000000001 0L865.4000000000001 250z" fill="url(#SvgjsLinearGradient2376)"></path><path d="M940.8 250L690.8 0L368.29999999999995 0L618.3 250z" fill="url(#SvgjsLinearGradient2376)"></path><path d="M725.1999999999999 250L475.19999999999993 0L368.69999999999993 0L618.6999999999999 250z" fill="url(#SvgjsLinearGradient2376)"></path><path d="M1216.0538759836445 250L1440 26.053875983644588L1440 250z" fill="url(#SvgjsLinearGradient2375)"></path><path d="M0 250L223.9461240163554 250L 0 26.053875983644588z" fill="url(#SvgjsLinearGradient2376)"></path></g><defs><mask id="SvgjsMask2373"><rect width="1440" height="250" fill="#ffffff"></rect></mask><linearGradient x1="79.34%" y1="219%" x2="20.66%" y2="-119%" gradientUnits="userSpaceOnUse" id="SvgjsLinearGradient2374"><stop stop-color="#0e2a47" offset="0"></stop><stop stop-color="rgba(0, 255, 237, 1)" offset="0.86"></stop><stop stop-color="rgba(0, 255, 237, 1)" offset="1"></stop></linearGradient><linearGradient x1="0%" y1="100%" x2="100%" y2="0%" id="SvgjsLinearGradient2375"><stop stop-color="rgba(15, 70, 185, 0.2)" offset="0"></stop><stop stop-opacity="0" stop-color="rgba(15, 70, 185, 0.2)" offset="0.66"></stop></linearGradient><linearGradient x1="100%" y1="100%" x2="0%" y2="0%" id="SvgjsLinearGradient2376"><stop stop-color="rgba(15, 70, 185, 0.2)" offset="0"></stop><stop stop-opacity="0" stop-color="rgba(15, 70, 185, 0.2)" offset="0.66"></stop></linearGradient></defs></svg>